<svg width="104" height="48" viewBox="0 0 104 48" fill="none" xmlns="http://www.w3.org/2000/svg">
<rect width="103.49" height="48" rx="15" fill="#6100FF"/>
<path d="M24.2874 30.208C23.5087 30.208 22.7834 30.056 22.1114 29.752C21.4447 29.448 20.8634 29.0293 20.3674 28.496C19.8714 27.9573 19.482 27.3387 19.1994 26.64C18.922 25.936 18.7834 25.184 18.7834 24.384C18.7834 23.5413 18.9327 22.768 19.2314 22.064C19.5354 21.36 19.9487 20.7493 20.4714 20.232C20.994 19.7147 21.586 19.3147 22.2474 19.032C22.914 18.7493 23.6074 18.608 24.3274 18.608C25.1327 18.608 25.914 18.7973 26.6714 19.176C27.434 19.5493 28.106 20.128 28.6874 20.912L26.9434 21.848C26.586 21.4107 26.1754 21.0853 25.7114 20.872C25.2527 20.6533 24.7834 20.544 24.3034 20.544C23.834 20.544 23.3834 20.64 22.9514 20.832C22.5247 21.024 22.1434 21.296 21.8074 21.648C21.4767 21.9947 21.2154 22.4053 21.0234 22.88C20.8314 23.3493 20.7354 23.864 20.7354 24.424C20.7354 24.952 20.8287 25.4507 21.0154 25.92C21.202 26.384 21.458 26.792 21.7834 27.144C22.114 27.4907 22.4954 27.7627 22.9274 27.96C23.3594 28.1573 23.8234 28.256 24.3194 28.256C24.65 28.256 24.9727 28.2053 25.2874 28.104C25.6074 27.9973 25.906 27.8453 26.1834 27.648C26.466 27.4507 26.7167 27.2107 26.9354 26.928C27.1594 26.6453 27.346 26.3253 27.4954 25.968H25.4554V24.264H29.7914C29.8127 25.08 29.6847 25.8453 29.4074 26.56C29.13 27.2747 28.738 27.9067 28.2314 28.456C27.7247 29.0053 27.1354 29.4347 26.4634 29.744C25.7914 30.0533 25.066 30.208 24.2874 30.208ZM31.8302 27.04V22H33.7822V26.528C33.7822 26.8427 33.8596 27.1307 34.0142 27.392C34.1689 27.648 34.3742 27.8533 34.6302 28.008C34.8916 28.1573 35.1769 28.232 35.4862 28.232C35.8062 28.232 36.0942 28.1573 36.3502 28.008C36.6062 27.8533 36.8116 27.648 36.9662 27.392C37.1209 27.1307 37.1982 26.8427 37.1982 26.528V22H39.1502L39.1582 30H37.2062L37.1982 29.272C36.9209 29.56 36.5929 29.7893 36.2142 29.96C35.8356 30.1253 35.4302 30.208 34.9982 30.208C34.4169 30.208 33.8862 30.0667 33.4062 29.784C32.9262 29.496 32.5422 29.1147 32.2542 28.64C31.9716 28.16 31.8302 27.6267 31.8302 27.04ZM47.6666 22H49.6186V30H47.6666L47.5786 29.008C47.3599 29.3653 47.0693 29.656 46.7066 29.88C46.3493 30.0987 45.9253 30.208 45.4346 30.208C44.8426 30.208 44.2879 30.096 43.7706 29.872C43.2533 29.648 42.7973 29.3387 42.4026 28.944C42.0133 28.5493 41.7066 28.0933 41.4826 27.576C41.2639 27.0587 41.1546 26.504 41.1546 25.912C41.1546 25.3413 41.2586 24.8053 41.4666 24.304C41.6799 23.8027 41.9759 23.3627 42.3546 22.984C42.7333 22.6053 43.1706 22.3093 43.6666 22.096C44.1626 21.8827 44.6959 21.776 45.2666 21.776C45.7946 21.776 46.2666 21.8933 46.6826 22.128C47.1039 22.3627 47.4613 22.6613 47.7546 23.024L47.6666 22ZM45.3866 28.328C45.8026 28.328 46.1706 28.224 46.4906 28.016C46.8106 27.808 47.0613 27.528 47.2426 27.176C47.4239 26.8187 47.5146 26.4267 47.5146 26C47.5146 25.568 47.4239 25.176 47.2426 24.824C47.0613 24.4667 46.8079 24.184 46.4826 23.976C46.1626 23.768 45.7973 23.664 45.3866 23.664C44.9759 23.664 44.5999 23.7707 44.2586 23.984C43.9226 24.192 43.6533 24.472 43.4506 24.824C43.2533 25.176 43.1546 25.568 43.1546 26C43.1546 26.432 43.2559 26.824 43.4586 27.176C43.6613 27.528 43.9306 27.808 44.2666 28.016C44.6079 28.224 44.9813 28.328 45.3866 28.328ZM52.2207 30L52.2127 22H54.1647L54.1727 22.712C54.4447 22.424 54.7701 22.1973 55.1487 22.032C55.5274 21.8613 55.9354 21.776 56.3727 21.776C56.6661 21.776 56.9594 21.8187 57.2527 21.904L56.4847 23.872C56.2821 23.792 56.0794 23.752 55.8767 23.752C55.5621 23.752 55.2741 23.8293 55.0127 23.984C54.7567 24.1333 54.5514 24.3387 54.3967 24.6C54.2474 24.856 54.1727 25.1413 54.1727 25.456V30H52.2207ZM64.8232 18H66.7752V30H64.8232V29C64.5672 29.3573 64.2446 29.648 63.8552 29.872C63.4659 30.096 63.0152 30.208 62.5032 30.208C61.9219 30.208 61.3779 30.0987 60.8712 29.88C60.3646 29.6613 59.9166 29.36 59.5272 28.976C59.1432 28.5867 58.8419 28.1387 58.6232 27.632C58.4046 27.1253 58.2952 26.5813 58.2952 26C58.2952 25.4187 58.4046 24.8747 58.6232 24.368C58.8419 23.8613 59.1432 23.416 59.5272 23.032C59.9166 22.6427 60.3646 22.3387 60.8712 22.12C61.3779 21.9013 61.9219 21.792 62.5032 21.792C63.0152 21.792 63.4659 21.904 63.8552 22.128C64.2446 22.3467 64.5672 22.6373 64.8232 23V18ZM62.5272 28.328C62.9432 28.328 63.3112 28.224 63.6312 28.016C63.9512 27.808 64.2019 27.528 64.3832 27.176C64.5646 26.8187 64.6552 26.4267 64.6552 26C64.6552 25.568 64.5646 25.176 64.3832 24.824C64.2019 24.4667 63.9486 24.184 63.6232 23.976C63.3032 23.768 62.9379 23.664 62.5272 23.664C62.1166 23.664 61.7406 23.7707 61.3992 23.984C61.0632 24.192 60.7939 24.472 60.5912 24.824C60.3939 25.176 60.2952 25.568 60.2952 26C60.2952 26.432 60.3966 26.824 60.5992 27.176C60.8019 27.528 61.0712 27.808 61.4072 28.016C61.7486 28.224 62.1219 28.328 62.5272 28.328ZM75.6041 22H77.5561V30H75.6041L75.5161 29.008C75.2974 29.3653 75.0068 29.656 74.6441 29.88C74.2868 30.0987 73.8628 30.208 73.3721 30.208C72.7801 30.208 72.2254 30.096 71.7081 29.872C71.1908 29.648 70.7348 29.3387 70.3401 28.944C69.9508 28.5493 69.6441 28.0933 69.4201 27.576C69.2014 27.0587 69.0921 26.504 69.0921 25.912C69.0921 25.3413 69.1961 24.8053 69.4041 24.304C69.6174 23.8027 69.9134 23.3627 70.2921 22.984C70.6708 22.6053 71.1081 22.3093 71.6041 22.096C72.1001 21.8827 72.6334 21.776 73.2041 21.776C73.7321 21.776 74.2041 21.8933 74.6201 22.128C75.0414 22.3627 75.3988 22.6613 75.6921 23.024L75.6041 22ZM73.3241 28.328C73.7401 28.328 74.1081 28.224 74.4281 28.016C74.7481 27.808 74.9988 27.528 75.1801 27.176C75.3614 26.8187 75.4521 26.4267 75.4521 26C75.4521 25.568 75.3614 25.176 75.1801 24.824C74.9988 24.4667 74.7454 24.184 74.4201 23.976C74.1001 23.768 73.7348 23.664 73.3241 23.664C72.9134 23.664 72.5374 23.7707 72.1961 23.984C71.8601 24.192 71.5908 24.472 71.3881 24.824C71.1908 25.176 71.0921 25.568 71.0921 26C71.0921 26.432 71.1934 26.824 71.3961 27.176C71.5988 27.528 71.8681 27.808 72.2041 28.016C72.5454 28.224 72.9188 28.328 73.3241 28.328ZM80.1582 30L80.1502 22H82.1022L82.1102 22.712C82.3822 22.424 82.7076 22.1973 83.0862 22.032C83.4649 21.8613 83.8729 21.776 84.3102 21.776C84.6036 21.776 84.8969 21.8187 85.1902 21.904L84.4222 23.872C84.2196 23.792 84.0169 23.752 83.8142 23.752C83.4996 23.752 83.2116 23.8293 82.9502 23.984C82.6942 24.1333 82.4889 24.3387 82.3342 24.6C82.1849 24.856 82.1102 25.1413 82.1102 25.456V30H80.1582Z" fill="white"/>
</svg>
